<mxfile host="app.diagrams.net" modified="2024-01-31T01:32:49.974Z" agent="Mozilla/5.0 (iPad; CPU OS 16_6 like Mac OS X) AppleWebKit/605.1.15 (KHTML, like Gecko) CriOS/120.0.6099.119 Mobile/15E148 Safari/604.1" version="23.0.2" etag="3Ern4LWS_3cRO7skOKTe" type="github">
  <diagram name="ページ1" id="0qP7iPrWGqazsJG9xSXH">
    <mxGraphModel>
      <root>
        <mxCell id="0" />
        <mxCell id="1" parent="0" />
      </root>
    </mxGraphModel>
  </diagram>
</mxfile>
